<?xml version="1.0" encoding="UTF-8"?>
<svg id="_レイヤー_1" data-name="レイヤー_1" xmlns="http://www.w3.org/2000/svg" version="1.1" viewBox="0 0 300 64">
  <!-- Generator: Adobe Illustrator 29.8.2, SVG Export Plug-In . SVG Version: 2.1.1 Build 3)  -->
  <defs>
    <style>
      .st0 {
        isolation: isolate;
      }

      .st1 {
        fill: none;
        stroke: #fff;
        stroke-linecap: round;
        stroke-linejoin: round;
        stroke-width: 2px;
      }

      .st2 {
        fill: #0b9e61;
      }

      .st3 {
        fill: #1e293b;
      }
    </style>
  </defs>
  <rect class="st2" x="8" y="8" width="48" height="48"/>
  <g>
    <path class="st1" d="M42,28l-6,4,6,4v-8Z"/>
    <rect class="st1" x="22" y="26" width="14" height="12" rx="2" ry="2"/>
  </g>
  <g class="st0">
    <path class="st3" d="M84.16,32.2h-9.79v5.18h11.16v3.62h-15.27v-20.15h14.78v3.57h-10.66v4.28h9.79v3.5Z"/>
    <path class="st3" d="M101.29,41h-4.85l-2.57-4.47-2.58,4.47h-4.73l5.09-7.55-4.87-7.33h4.77l2.49,4.32,2.43-4.32h4.63l-4.89,7.26,5.09,7.62Z"/>
    <path class="st3" d="M115.87,36.62c-.1.88-.56,1.78-1.38,2.69-1.28,1.45-3.06,2.17-5.36,2.17-1.9,0-3.57-.61-5.02-1.83s-2.17-3.21-2.17-5.96c0-2.58.65-4.56,1.96-5.93,1.31-1.38,3.01-2.06,5.09-2.06,1.24,0,2.36.23,3.35.7.99.46,1.81,1.2,2.46,2.2.58.88.96,1.91,1.13,3.08.1.68.14,1.67.12,2.95h-10.2c.05,1.5.52,2.54,1.41,3.14.54.37,1.18.56,1.94.56.8,0,1.45-.23,1.96-.68.27-.25.51-.59.72-1.03h3.98ZM112.01,32.06c-.06-1.03-.38-1.81-.94-2.34s-1.26-.8-2.08-.8c-.9,0-1.6.28-2.1.85-.5.57-.81,1.33-.94,2.3h6.06Z"/>
    <path class="st3" d="M131.1,31.44h-3.99c-.07-.56-.26-1.06-.56-1.5-.44-.6-1.12-.9-2.04-.9-1.31,0-2.21.65-2.69,1.96-.26.69-.38,1.61-.38,2.76s.13,1.97.38,2.64c.46,1.24,1.34,1.86,2.62,1.86.91,0,1.56-.25,1.94-.74s.62-1.13.7-1.91h3.98c-.09,1.18-.52,2.31-1.29,3.36-1.22,1.7-3.03,2.56-5.43,2.56s-4.16-.71-5.29-2.13c-1.13-1.42-1.7-3.27-1.7-5.54,0-2.56.62-4.55,1.87-5.97,1.25-1.42,2.97-2.13,5.17-2.13,1.87,0,3.4.42,4.59,1.26s1.89,2.32,2.11,4.44Z"/>
    <path class="st3" d="M147.84,39.5c-1.5,1.38-3.43,2.06-5.77,2.06-2.9,0-5.18-.93-6.84-2.79-1.66-1.87-2.49-4.43-2.49-7.68,0-3.52.94-6.23,2.83-8.13,1.64-1.66,3.73-2.49,6.26-2.49,3.39,0,5.87,1.11,7.44,3.34.87,1.25,1.33,2.5,1.39,3.76h-4.21c-.27-.97-.62-1.7-1.05-2.19-.77-.88-1.9-1.31-3.4-1.31s-2.74.62-3.62,1.85c-.88,1.24-1.33,2.98-1.33,5.24s.47,3.95,1.4,5.08c.93,1.13,2.12,1.69,3.56,1.69s2.6-.48,3.38-1.45c.43-.52.78-1.3,1.07-2.34h4.17c-.36,2.2-1.29,3.98-2.79,5.36Z"/>
    <path class="st3" d="M165.48,27.98c1.26,1.58,1.89,3.44,1.89,5.59s-.63,4.06-1.89,5.61-3.17,2.33-5.73,2.33-4.47-.78-5.73-2.33-1.89-3.42-1.89-5.61.63-4.01,1.89-5.59,3.17-2.37,5.73-2.37,4.47.79,5.73,2.37ZM159.74,28.91c-1.14,0-2.02.4-2.63,1.21s-.92,1.96-.92,3.45.31,2.65.92,3.46,1.49,1.22,2.63,1.22,2.01-.41,2.62-1.22.92-1.96.92-3.46-.31-2.65-.92-3.45-1.49-1.21-2.62-1.21Z"/>
    <path class="st3" d="M178.05,30.2c-.33-.72-.97-1.08-1.93-1.08-1.11,0-1.86.36-2.24,1.08-.21.41-.31,1.02-.31,1.83v8.97h-3.95v-14.88h3.79v2.17c.48-.77.94-1.33,1.37-1.65.76-.58,1.74-.88,2.94-.88,1.14,0,2.06.25,2.76.75.56.46.99,1.06,1.29,1.79.51-.88,1.14-1.52,1.9-1.93.8-.41,1.7-.62,2.68-.62.66,0,1.3.13,1.94.38.64.25,1.22.7,1.74,1.34.42.52.7,1.16.85,1.91.09.5.14,1.24.14,2.2l-.03,9.39h-3.99v-9.49c0-.57-.09-1.03-.27-1.39-.35-.69-.98-1.04-1.91-1.04-1.08,0-1.82.45-2.23,1.34-.21.47-.31,1.04-.31,1.71v8.87h-3.92v-8.87c0-.88-.09-1.53-.27-1.93Z"/>
    <path class="st3" d="M202.47,30.2c-.33-.72-.97-1.08-1.93-1.08-1.11,0-1.86.36-2.24,1.08-.21.41-.31,1.02-.31,1.83v8.97h-3.95v-14.88h3.79v2.17c.48-.77.94-1.33,1.37-1.65.76-.58,1.74-.88,2.94-.88,1.14,0,2.06.25,2.76.75.56.46.99,1.06,1.29,1.79.51-.88,1.14-1.52,1.9-1.93.8-.41,1.7-.62,2.68-.62.66,0,1.3.13,1.94.38.64.25,1.22.7,1.74,1.34.42.52.7,1.16.85,1.91.09.5.14,1.24.14,2.2l-.03,9.39h-3.99v-9.49c0-.57-.09-1.03-.27-1.39-.35-.69-.98-1.04-1.91-1.04-1.08,0-1.82.45-2.23,1.34-.21.47-.31,1.04-.31,1.71v8.87h-3.92v-8.87c0-.88-.09-1.53-.27-1.93Z"/>
    <path class="st3" d="M228.79,26.78c1.17.75,1.84,2.03,2.01,3.86h-3.9c-.05-.5-.2-.9-.42-1.19-.43-.53-1.16-.79-2.19-.79-.85,0-1.45.13-1.81.4-.36.26-.54.57-.54.93,0,.45.19.77.57.97.38.21,1.74.57,4.06,1.08,1.55.36,2.71.92,3.49,1.65.77.75,1.15,1.68,1.15,2.8,0,1.48-.55,2.68-1.65,3.62-1.1.93-2.8,1.4-5.09,1.4s-4.07-.49-5.19-1.48c-1.12-.99-1.68-2.25-1.68-3.78h3.95c.08.69.26,1.18.53,1.48.48.52,1.38.78,2.68.78.77,0,1.38-.11,1.83-.34s.68-.57.68-1.03-.18-.77-.55-1c-.36-.23-1.72-.62-4.06-1.18-1.69-.42-2.88-.94-3.57-1.57-.69-.62-1.04-1.51-1.04-2.68,0-1.38.54-2.56,1.62-3.55s2.6-1.48,4.56-1.48,3.38.37,4.55,1.11Z"/>
    <path class="st3" d="M257.53,41h-4.21l-8.23-14.31v14.31h-3.92v-20.15h4.42l8.03,14.07v-14.07h3.92v20.15Z"/>
    <path class="st3" d="M264.67,20.72v3.6h-3.95v-3.6h3.95ZM264.67,26.1v14.9h-3.95v-14.9h3.95Z"/>
    <path class="st3" d="M274.98,28.98c-1.32,0-2.23.56-2.72,1.68-.25.59-.38,1.35-.38,2.27v8.07h-3.88v-14.88h3.76v2.17c.5-.77.98-1.32,1.42-1.65.8-.6,1.82-.9,3.05-.9,1.54,0,2.8.4,3.78,1.21.98.81,1.47,2.14,1.47,4.01v10.04h-3.99v-9.06c0-.78-.1-1.39-.31-1.8-.38-.77-1.11-1.15-2.19-1.15Z"/>
    <path class="st3" d="M284.77,26.17h3.9v16.43c0,1.5-.3,2.62-.89,3.34-.59.72-1.76,1.08-3.49,1.08-.12,0-.29,0-.53-.01s-.52-.02-.87-.03v-3.12c.22.02.37.03.46.03.09,0,.17,0,.25,0,.38,0,.67-.09.87-.28.2-.19.29-.55.29-1.09v-16.37ZM284.77,20.72h3.9v3.6h-3.9v-3.6Z"/>
    <path class="st3" d="M292.46,27.71c1.03-1.31,2.8-1.97,5.3-1.97,1.63,0,3.08.32,4.35.97,1.27.65,1.9,1.87,1.9,3.66v6.84c0,.47,0,1.05.03,1.72.03.51.1.86.23,1.04.13.18.32.33.57.45v.57h-4.24c-.12-.3-.2-.58-.25-.85-.05-.26-.08-.57-.11-.9-.54.58-1.16,1.08-1.86,1.49-.84.48-1.79.72-2.84.72-1.35,0-2.46-.38-3.34-1.16s-1.32-1.86-1.32-3.27c0-1.83.71-3.16,2.12-3.98.77-.45,1.91-.77,3.42-.96l1.33-.16c.72-.09,1.23-.21,1.54-.34.56-.24.83-.61.83-1.11,0-.61-.21-1.03-.64-1.26s-1.05-.35-1.87-.35c-.92,0-1.57.23-1.96.68-.27.34-.46.79-.55,1.37h-3.76c.08-1.3.45-2.37,1.09-3.21ZM295.36,38.18c.36.3.81.45,1.34.45.84,0,1.61-.25,2.32-.74s1.07-1.39,1.1-2.69v-1.45c-.25.16-.49.28-.75.38s-.59.18-1.03.27l-.88.16c-.82.15-1.41.32-1.76.53-.6.36-.9.91-.9,1.65,0,.67.19,1.14.56,1.44Z"/>
  </g>
</svg>